PathFileType	4	(X/Y/Z)	P:\Projects\LMB_grand_challenge_database\project_only\opensim\experimental_data\SixthCompetition/DM_ngait_og1_new.trc
DataRate	CameraRate	NumFrames	NumMarkers	Units	OrigDataRate	OrigDataStartFrame	OrigNumFrames
120	120	6	68	mm	120	190	381
Frame#	Time	Sternum			Neck			R_Shoulder			L_Shoulder			Xiphoid			Thoracic			R_Asis			L_Asis			R_Psis			L_Psis			Lumbar			R_Elbow			R_ElbowMedial			R_ShoulderAnterior			R_ShoulderPosterior			R_Wrist			R_Radius			R_Ulna			L_Elbow			L_ElbowMedial			L_ShoulderAnterior			L_ShoulderPosterior			L_Wrist			L_Ulna			L_Radius			L_Thigh_Superior			L_Thigh_Inferior			L_Thigh_Lateral			L_Knee_Lateral			L_Knee_Medial			L_Patella			L_Shank_Superior			L_Shank_Inferior			L_Shank_Lateral			L_Ankle_Lateral			L_Ankle_Medial			R_Thigh_Superior			R_Thigh_Inferior			R_Thigh_Lateral			R_Knee_Lateral			R_Knee_Medial			R_Patella			R_Shank_Superior			R_Shank_Inferior			R_Shank_Lateral			R_Ankle_Lateral			RankleMedial			R_Heel			R_Toe			R_Midfoot_Medial			R_Midfoot_Lateral			R_Hindfoot			R_Midfoot_Superior			R_ToeMedial			R_ToeLateral			L_Heel			L_Toe			L_Midfoot_Medial			L_Midfoot_Lateral			L_Hindfoot			L_Midfoot_Superior			L_ToeMedial			L_ToeLateral			Oglobal			Sacral			Xglobal			Yglobal			Zglobal			
		X1	Y1	Z1	X2	Y2	Z2	X3	Y3	Z3	X4	Y4	Z4	X5	Y5	Z5	X6	Y6	Z6	X7	Y7	Z7	X8	Y8	Z8	X9	Y9	Z9	X10	Y10	Z10	X11	Y11	Z11	X12	Y12	Z12	X13	Y13	Z13	X14	Y14	Z14	X15	Y15	Z15	X16	Y16	Z16	X17	Y17	Z17	X18	Y18	Z18	X19	Y19	Z19	X20	Y20	Z20	X21	Y21	Z21	X22	Y22	Z22	X23	Y23	Z23	X24	Y24	Z24	X25	Y25	Z25	X26	Y26	Z26	X27	Y27	Z27	X28	Y28	Z28	X29	Y29	Z29	X30	Y30	Z30	X31	Y31	Z31	X32	Y32	Z32	X33	Y33	Z33	X34	Y34	Z34	X35	Y35	Z35	X36	Y36	Z36	X37	Y37	Z37	X38	Y38	Z38	X39	Y39	Z39	X40	Y40	Z40	X41	Y41	Z41	X42	Y42	Z42	X43	Y43	Z43	X44	Y44	Z44	X45	Y45	Z45	X46	Y46	Z46	X47	Y47	Z47	X48	Y48	Z48	X49	Y49	Z49	X50	Y50	Z50	X51	Y51	Z51	X52	Y52	Z52	X53	Y53	Z53	X54	Y54	Z54	X55	Y55	Z55	X56	Y56	Z56	X57	Y57	Z57	X58	Y58	Z58	X59	Y59	Z59	X60	Y60	Z60	X61	Y61	Z61	X62	Y62	Z62	X63	Y63	Z63	X64	Y64	Z64	X65	Y65	Z65	X66	Y66	Z66	X67	Y67	Z67	X68	Y68	Z68	

191	2.333333	114.16	1361.2	161.529	-36.6511	1456.68	155.241	44.507	1401.81	330.501	38.4645	1404	-12.0478	121.831	1197.33	170.297	-139.803	1271.61	156.68	22.4739	970.352	303.782	48.4969	978.771	29.6426	-167.053	1023.9	180.457	-162.244	1021.51	101.491	-160.683	1072.03	145.195	-23.0708	1098.88	444.964	-0	0	0	-0	0	0	-0	0	0	74.6302	834.34	444.046	77.73090000000001	846.486	400.234	27.4942	836.7859999999999	452.4	121.269	1086.34	-108.602	-0	0	0	-0	0	0	-0	0	0	304.907	891.886	-63.5091	263.535	884.2430000000001	-90.71080000000001	280.548	905.097	-21.7111	-0	0	0	-83.9248	587.741	54.2288	-14.8705	666.231	74.55540000000001	-0	0	0	-0	0	0	-76.50360000000001	495.508	119.405	-158.545	444.14	53.5549	-247.608	188.793	62.3579	-174.67	301.724	130.14	-0	0	0	-0	0	0	-47.8767	793.462	336.436	46.8387	596.08	306.75	64.2509	735.2430000000001	325.613	-0	0	0	-0	0	0	161.901	540.745	255.259	90.4483	398.49	321.712	188.288	212.1	317.718	199.484	354.983	253.883	-0	0	0	-0	0	0	183.385	60.4227	260.127	456.519	177.502	292.91	399.702	131.763	229.576	383.849	112.095	344.093	285.423	64.6875	320.654	305.722	179.806	284.343	433.928	156.279	245.057	423.384	142.291	336.048	-353.068	72.7229	116.988	-55.5587	50.9553	127.718	-138.222	34.4859	176.543	-145.313	29.125	62.4071	-252.456	29.9159	66.0664	-184.882	120.551	116.424	-94.795	34.4658	169.67	-90.90949999999999	33.7393	74.3476	-0	0	0	-164.648	1022.7	140.974	-200	0	0	-0	0	200	-0	200	0	
192	2.341667	123.062	1359.09	162.329	-27.7534	1454.89	156.208	53.5179	1399.75	331.182	47.3471	1402.08	-11.2377	130.41	1195.33	170.723	-131.176	1269.89	157.601	30.8987	968.182	304.17	56.7567	977.254	29.8217	-158.633	1022.01	180.975	-153.878	1019.64	102.177	-152.39	1070.17	145.835	-13.7464	1096.91	445.806	-0	0	0	-0	0	0	-0	0	0	83.2664	832.103	444.518	86.43810000000001	844.443	400.427	36.4165	834.694	453.082	132.765	1085.17	-106.868	-0	0	0	-0	0	0	-0	0	0	318.359	893.0650000000001	-60.2834	277.209	884.919	-87.8584	293.61	906.121	-18.7776	-0	0	0	-78.98869999999999	586.679	54.5692	-9.36796	664.667	74.6857	-0	0	0	-0	0	0	-72.61150000000001	493.807	119.568	-155.249	443.756	53.6949	-246.537	188.994	62.6106	-171.81	301.359	130.041	-0	0	0	-0	0	0	-39.3206	791.543	336.457	56.7105	595.0890000000001	306.309	73.6921	734.148	324.887	-0	0	0	-0	0	0	170.865	540.467	253.826	102.167	398.048	321.892	204.532	213.047	317.194	212.107	355.975	253.13	-0	0	0	-0	0	0	202.399	60.6044	259.622	472.924	184.188	290.879	416.834	136.864	227.714	402.039	117.197	342.374	304.838	67.3263	319.774	322.069	182.904	282.833	450.63	162.319	243.208	440.76	148.39	334.225	-352.743	73.5183	116.98	-55.162	50.4858	127.867	-138.033	33.8978	176.119	-145.227	29.3477	61.9536	-252.758	30.5809	65.76049999999999	-184.561	120.521	116.621	-94.723	34.3028	169.7	-90.8899	33.693	74.3443	-0	0	0	-156.256	1020.82	141.576	-200	0	0	-0	0	200	-0	200	0	
193	2.35	131.969	1356.99	163.211	-18.7345	1453.05	157.259	62.6504	1397.41	331.955	56.3278	1400.19	-10.2683	139.187	1193.17	171.089	-122.494	1268.31	158.519	39.2831	966.063	304.736	65.0484	975.76	29.9912	-150.257	1020	181.602	-145.495	1017.66	102.883	-144.163	1068.2	146.496	-4.35966	1094.92	446.652	-0	0	0	-0	0	0	-0	0	0	92.29000000000001	830.001	445.183	94.9834	842.228	400.962	45.2561	832.453	453.733	143.874	1083.88	-105.006	-0	0	0	-0	0	0	-0	0	0	331.501	894.136	-56.9539	290.717	885.45	-85.023	306.392	906.956	-15.7101	-0	0	0	-73.6054	585.602	54.7592	-3.4323	663.146	75.1593	-0	0	0	-0	0	0	-69.0035	491.886	120.116	-151.538	443.315	53.7749	-245.914	189.504	62.8542	-169.338	300.862	130.024	-0	0	0	-0	0	0	-30.0587	789.8150000000001	336.444	67.3952	594.194	306.038	83.8952	733.449	324.27	-0	0	0	-0	0	0	181.456	541.433	250.631	114.932	397.214	321.512	219.217	213.43	316.099	224.693	356.548	252.148	-0	0	0	-0	0	0	219.03	60.9524	258.042	487.308	188.553	289.19	432.435	140.093	226.241	417.881	120.134	340.881	321.648	68.9479	318.416	337.016	184.778	281.372	465.425	166.442	241.471	455.975	152.234	332.511	-352.617	74.4526	117.069	-54.7188	50.3258	127.744	-138.141	33.4428	176.11	-145.371	29.1624	61.9368	-252.748	30.9386	65.66379999999999	-184.034	120.493	116.789	-94.5265	34.1851	169.93	-90.91549999999999	33.6758	74.42749999999999	-0	0	0	-147.876	1018.83	142.242	-200	0	0	-0	0	200	-0	200	0	
194	2.358333	140.983	1354.89	164.186	-9.65352	1451.06	158.283	71.81780000000001	1395.19	332.809	65.3754	1398.53	-9.33916	147.862	1190.87	171.651	-113.727	1266.65	159.362	47.7489	963.6950000000001	305.239	73.1572	974.189	30.0719	-141.892	1018.02	182.437	-137.209	1015.74	103.661	-135.918	1066.27	147.345	4.99931	1092.66	447.603	-0	0	0	-0	0	0	-0	0	0	101.043	827.53	445.426	103.465	839.706	401.186	54.2512	830.23	454.591	154.638	1082.31	-102.98	-0	0	0	-0	0	0	-0	0	0	344.372	894.956	-53.729	303.905	885.89	-82.0245	318.781	907.671	-12.6199	-0	0	0	-68.0192	584.552	54.8711	2.85229	661.4880000000001	75.42059999999999	-0	0	0	-0	0	0	-64.95999999999999	489.866	121.211	-147.409	442.807	54.2317	-245.214	189.788	63.1564	-166.666	300.622	130.158	-0	0	0	-0	0	0	-20.1302	788.399	336.502	78.8411	593.455	305.954	94.9602	733.17	323.315	-0	0	0	-0	0	0	192.496	541.562	249.487	128.064	396.639	321.095	232.463	213.407	314.946	236.858	356.651	251.041	-0	0	0	-0	0	0	232.944	60.9575	256.023	500.438	190.205	287.897	445.839	141.66	224.738	431.438	120.807	339.238	335.569	69.26649999999999	316.426	350.019	185.213	280.17	478.537	168.128	240.108	469.298	153.3	331.048	-352.179	75.42	117.159	-54.7207	50.1269	127.849	-137.943	32.9357	176.028	-145.214	29.0798	61.8425	-252.816	31.4701	65.6297	-183.894	120.304	117.006	-94.5878	34.0093	169.966	-90.9021	33.6646	74.4105	-0	0	0	-139.55	1016.88	143.049	-200	0	0	-0	0	200	-0	200	0	
195	2.366667	149.964	1352.84	165.178	-0.55264	1449.28	159.484	81.1036	1392.89	333.668	74.4576	1397	-8.2789	156.782	1188.71	172.161	-104.797	1265	160.146	56.4317	961.603	305.815	81.64409999999999	972.605	30.3402	-133.313	1015.97	183.194	-128.643	1013.72	104.395	-127.457	1064.24	148.084	14.3671	1090.37	448.564	-0	0	0	-0	0	0	-0	0	0	109.742	825.119	445.698	112.233	837.343	401.75	63.1902	827.832	455.091	165.354	1081.02	-101.059	-0	0	0	-0	0	0	-0	0	0	356.895	895.697	-50.4798	316.718	886.254	-79.1177	330.759	908.136	-9.66635	-0	0	0	-62.0831	583.501	55.482	9.60957	660.181	76.0047	-0	0	0	-0	0	0	-60.821	487.282	122.889	-142.885	442.374	54.4593	-244.615	190.442	63.5152	-164.019	300.332	130.364	-0	0	0	-0	0	0	-9.49464	787.294	336.55	91.2439	593.189	305.982	106.505	733.246	322.302	-0	0	0	-0	0	0	204.517	541.6559999999999	249.014	140.494	396.447	320.385	244.189	212.898	313.617	248.581	356.398	249.735	-0	0	0	-0	0	0	244.225	60.5365	253.906	511.933	189.291	286.814	457.107	141.468	223.123	442.725	119.857	337.484	346.88	68.3758	314.391	361.27	184.622	278.852	490.034	167.477	238.757	480.544	152.341	329.822	-351.743	76.5021	117.166	-54.8506	50.0448	127.807	-137.903	33.1256	176.82	-144.903	28.6936	62.6385	-252.3	31.5038	65.9444	-183.388	120.384	117.209	-94.6183	33.7771	170.019	-90.8603	33.6749	74.4693	-0	0	0	-130.978	1014.84	143.794	-200	0	0	-0	0	200	-0	200	0	
196	2.375	159.001	1350.81	166.212	8.55241	1447.57	160.654	90.17740000000001	1390.36	334.671	83.84820000000001	1395.39	-7.14204	165.577	1186.61	172.752	-95.97280000000001	1263.29	160.86	65.3408	959.708	306.475	89.9693	971.001	30.8474	-124.747	1013.88	184.294	-120.2	1011.81	105.408	-119.012	1062.25	149.169	23.837	1088.09	449.475	-0	0	0	-0	0	0	-0	0	0	118.631	822.615	446.102	120.871	834.746	402.229	72.1913	825.268	455.698	176.558	1080	-99.7577	-0	0	0	-0	0	0	-0	0	0	369.004	896.25	-47.2959	329.03	886.346	-76.1965	342.59	908.634	-6.73848	-0	0	0	-55.6782	582.4160000000001	55.9123	16.4124	658.456	76.5617	-0	0	0	-0	0	0	-56.27	484.822	123.692	-138.106	441.986	54.8737	-243.35	191.081	63.7832	-161.053	299.787	130.441	-0	0	0	-0	0	0	1.73753	786.266	336.794	103.969	592.949	305.639	118.628	733.449	321.17	-0	0	0	-0	0	0	216.953	541.699	248.179	152.355	396.463	319.664	254.415	211.829	311.996	260.076	355.625	248.431	-0	0	0	-0	0	0	253.106	59.6744	251.916	521.814	185.996	285.45	466.752	138.755	221.621	451.948	117.194	335.939	355.631	66.5141	312.594	371.192	182.719	277.187	499.844	164.427	237.286	490.161	149.064	328.168	-351.255	77.78919999999999	117.588	-54.8024	49.9901	127.895	-137.474	33.0661	176.453	-144.825	29.1202	62.2755	-252.628	32.3403	65.88500000000001	-182.354	120.876	117.315	-94.485	33.6954	170.151	-91.56140000000001	34.0718	74.517	-0	0	0	-122.473	1012.84	144.851	-200	0	0	-0	0	200	-0	200	0	
